<svg xmlns="http://www.w3.org/2000/svg" xmlns:xlink="http://www.w3.org/1999/xlink" width="161.048" height="48.02" viewBox="0 0 161.048 48.02"><defs><linearGradient id="a" x1="0.54" x2="0.549" y2="1" gradientUnits="objectBoundingBox"><stop offset="0" stop-color="#0362d5"/><stop offset="1" stop-color="#2d8dff"/></linearGradient></defs><g transform="translate(603.999 511.108)"><path d="M12.227-63.569a9.8,9.8,0,0,1-3.887-.7,6.02,6.02,0,0,1-2.505-1.855,4.347,4.347,0,0,1-.921-2.478A.544.544,0,0,1,5.09-69a.573.573,0,0,1,.42-.176H6.891a.707.707,0,0,1,.7.542,3.208,3.208,0,0,0,1.395,1.95,5.55,5.55,0,0,0,3.237.813,5.9,5.9,0,0,0,3.386-.8A2.576,2.576,0,0,0,16.75-68.9a2.042,2.042,0,0,0-.555-1.49,4.72,4.72,0,0,0-1.639-1q-1.083-.433-3.25-1.083a16.683,16.683,0,0,1-3.358-1.273,4.867,4.867,0,0,1-1.869-1.679,4.693,4.693,0,0,1-.623-2.519,4.536,4.536,0,0,1,.8-2.627,5.311,5.311,0,0,1,2.289-1.828,8.672,8.672,0,0,1,3.548-.664,8.16,8.16,0,0,1,3.629.745,5.846,5.846,0,0,1,2.3,1.882,4.361,4.361,0,0,1,.84,2.275.544.544,0,0,1-.149.379.541.541,0,0,1-.42.163H16.858a.65.65,0,0,1-.7-.515,2.689,2.689,0,0,0-1.273-1.882,4.9,4.9,0,0,0-2.79-.745,5.173,5.173,0,0,0-2.9.7,2.344,2.344,0,0,0-1.056,2.086,2.276,2.276,0,0,0,.5,1.517,4.094,4.094,0,0,0,1.53,1.043A26.231,26.231,0,0,0,13.175-74.4,20.127,20.127,0,0,1,16.8-73.116a4.924,4.924,0,0,1,1.977,1.652,4.473,4.473,0,0,1,.65,2.505A4.64,4.64,0,0,1,17.481-65,8.677,8.677,0,0,1,12.227-63.569ZM23.6-63.84a.605.605,0,0,1-.447-.176.605.605,0,0,1-.176-.447V-82.176a.606.606,0,0,1,.176-.447A.605.605,0,0,1,23.6-82.8h1.435a.605.605,0,0,1,.447.176.606.606,0,0,1,.176.447v17.713a.605.605,0,0,1-.176.447.605.605,0,0,1-.447.176Zm7.394,0a.605.605,0,0,1-.447-.176.605.605,0,0,1-.176-.447V-82.149a.641.641,0,0,1,.176-.474A.605.605,0,0,1,31-82.8h1.354a.807.807,0,0,1,.7.433L38.77-71.424l5.769-10.942a.638.638,0,0,1,.23-.3.712.712,0,0,1,.447-.135h1.327a.64.64,0,0,1,.474.176.64.64,0,0,1,.176.474v17.686a.583.583,0,0,1-.19.447.652.652,0,0,1-.46.176H45.216a.605.605,0,0,1-.447-.176.605.605,0,0,1-.176-.447V-77.789l-4.523,8.83a.9.9,0,0,1-.867.569h-.84a.9.9,0,0,1-.867-.569l-4.55-8.83v13.326a.605.605,0,0,1-.176.447.605.605,0,0,1-.447.176Zm21.505,0a.605.605,0,0,1-.447-.176.605.605,0,0,1-.176-.447V-82.149a.641.641,0,0,1,.176-.474A.606.606,0,0,1,52.5-82.8h6.879A7.229,7.229,0,0,1,64.2-81.31,5.326,5.326,0,0,1,65.963-77a5.305,5.305,0,0,1-1.747,4.293,7.263,7.263,0,0,1-4.835,1.476H54.587v6.771a.583.583,0,0,1-.19.447.652.652,0,0,1-.46.176Zm6.744-9.669a4.407,4.407,0,0,0,2.993-.894A3.279,3.279,0,0,0,63.254-77a3.345,3.345,0,0,0-1-2.614,4.353,4.353,0,0,0-3.006-.907H54.56v7.015ZM69.89-63.84a.605.605,0,0,1-.447-.176.605.605,0,0,1-.176-.447V-82.176a.606.606,0,0,1,.176-.447.605.605,0,0,1,.447-.176h1.435a.605.605,0,0,1,.447.176.606.606,0,0,1,.176.447V-66.2H80.94a.64.64,0,0,1,.474.176.64.64,0,0,1,.176.474v1.083a.583.583,0,0,1-.19.447.652.652,0,0,1-.46.176Zm15.249,0a.605.605,0,0,1-.447-.176.605.605,0,0,1-.176-.447V-82.149a.641.641,0,0,1,.176-.474.605.605,0,0,1,.447-.176H96.324a.605.605,0,0,1,.447.176.64.64,0,0,1,.176.474v1.029a.633.633,0,0,1-.163.447.6.6,0,0,1-.46.176H87.116v5.932h8.613a.605.605,0,0,1,.447.176.641.641,0,0,1,.176.474v1a.605.605,0,0,1-.176.447.605.605,0,0,1-.447.176H87.116v6.148h9.425a.623.623,0,0,1,.46.163.623.623,0,0,1,.163.46v1.056a.605.605,0,0,1-.176.447.606.606,0,0,1-.447.176Z" transform="translate(-554.536 -421.062)" fill="#263340"/><g transform="translate(-721.811 -2368.028)"><path d="M18.7,48.019l-1.011-1.024L0,29.3l.149-.149-.017-.017,7.739-7.739,1.547,1.548-.913.913,7.964,10.962H23.26l3.785-7.334,1.92,1.854A1.97,1.97,0,1,0,31.7,26.5l-2.147-2.074,1.378-1.39,2.532,2.478,0,.018a3.722,3.722,0,0,1,.246,4.737v.008l-.054.063c-.057.072-.117.144-.185.22L18.706,48.019h0Zm-5.42-8.529,4.99,4.99,1.491-2.889-3.611-4.971Zm7.155.794,2.143-4.151H17.424Zm-17.361-11,9.277,9.277,3.017-3.017-3.64-5.009L10.267,32l-.929-.929,1.613-1.613L7.565,24.8ZM18.818,32.1a74.723,74.723,0,0,1-5.884-7.272,45.435,45.435,0,0,1-4.045-6.777A16.6,16.6,0,0,1,7.05,11.235a10.747,10.747,0,0,1,.923-4.376,11.175,11.175,0,0,1,2.521-3.571A11.771,11.771,0,0,1,14.234.882a12.354,12.354,0,0,1,9.168,0,11.771,11.771,0,0,1,3.74,2.406,11.175,11.175,0,0,1,2.521,3.571,10.747,10.747,0,0,1,.923,4.376,16.6,16.6,0,0,1-1.839,6.815A45.512,45.512,0,0,1,24.7,24.826,74.722,74.722,0,0,1,18.819,32.1ZM15.405,11.856a3.5,3.5,0,1,0,3.5-3.5A3.505,3.505,0,0,0,15.405,11.856Z" transform="translate(117.812 1856.919)" fill="url(#a)"/></g><path d="M-272.614-24.686a.251.251,0,0,1-.185-.073.251.251,0,0,1-.073-.185v-7.334a.266.266,0,0,1,.073-.2.251.251,0,0,1,.185-.073h2.853a3,3,0,0,1,2,.618,2.209,2.209,0,0,1,.73,1.786,2.2,2.2,0,0,1-.724,1.78,3.012,3.012,0,0,1-2,.612h-1.988v2.808a.242.242,0,0,1-.079.185.27.27,0,0,1-.191.073Zm2.8-4.009a1.827,1.827,0,0,0,1.241-.371,1.36,1.36,0,0,0,.421-1.078,1.387,1.387,0,0,0-.416-1.084,1.805,1.805,0,0,0-1.247-.376h-1.943V-28.7Zm6.323,4.122a2.553,2.553,0,0,1-1.915-.7,2.7,2.7,0,0,1-.724-1.853l-.011-.483.011-.483a2.692,2.692,0,0,1,.73-1.847,2.545,2.545,0,0,1,1.909-.7,2.545,2.545,0,0,1,1.909.7,2.692,2.692,0,0,1,.73,1.847q.011.124.011.483t-.011.483a2.7,2.7,0,0,1-.724,1.853A2.553,2.553,0,0,1-263.494-24.574Zm0-.865a1.437,1.437,0,0,0,1.117-.449,1.973,1.973,0,0,0,.444-1.292q.011-.112.011-.427t-.011-.427a1.973,1.973,0,0,0-.444-1.292,1.437,1.437,0,0,0-1.117-.449,1.455,1.455,0,0,0-1.123.449,1.914,1.914,0,0,0-.438,1.292l-.011.427.011.427a1.914,1.914,0,0,0,.438,1.292A1.455,1.455,0,0,0-263.494-25.439Zm5.447.752a.335.335,0,0,1-.225-.067.524.524,0,0,1-.135-.213L-260-30.178l-.022-.112a.219.219,0,0,1,.073-.168.234.234,0,0,1,.163-.067h.494a.277.277,0,0,1,.185.062.3.3,0,0,1,.1.129l1.247,4.234,1.336-4.189a.331.331,0,0,1,.1-.163.3.3,0,0,1,.213-.073h.382a.3.3,0,0,1,.213.073.331.331,0,0,1,.1.163l1.337,4.189,1.247-4.234a.251.251,0,0,1,.084-.124.263.263,0,0,1,.185-.067h.505a.216.216,0,0,1,.157.067.229.229,0,0,1,.067.168l-.022.112-1.584,5.211a.524.524,0,0,1-.135.213.355.355,0,0,1-.236.067h-.438a.341.341,0,0,1-.371-.281l-1.3-4.021-1.3,4.021a.368.368,0,0,1-.382.281Zm9.636.112a2.453,2.453,0,0,1-1.847-.713,2.924,2.924,0,0,1-.758-1.949l-.011-.382.011-.371a2.962,2.962,0,0,1,.769-1.932,2.415,2.415,0,0,1,1.825-.719,2.417,2.417,0,0,1,1.932.792,3.158,3.158,0,0,1,.685,2.139v.191a.251.251,0,0,1-.073.185.251.251,0,0,1-.185.073h-3.886v.1a2.081,2.081,0,0,0,.444,1.241,1.321,1.321,0,0,0,1.084.511,1.572,1.572,0,0,0,.848-.208,1.665,1.665,0,0,0,.489-.432.653.653,0,0,1,.152-.163.421.421,0,0,1,.185-.028h.55a.254.254,0,0,1,.168.056.193.193,0,0,1,.067.157.988.988,0,0,1-.309.6,2.542,2.542,0,0,1-.865.6A3.05,3.05,0,0,1-248.411-24.574Zm1.539-3.459v-.034a1.866,1.866,0,0,0-.421-1.263,1.415,1.415,0,0,0-1.129-.489,1.382,1.382,0,0,0-1.117.489,1.9,1.9,0,0,0-.41,1.263v.034Zm2.673,3.347a.251.251,0,0,1-.185-.073.251.251,0,0,1-.073-.185v-5.312a.27.27,0,0,1,.073-.191.242.242,0,0,1,.185-.079h.517a.26.26,0,0,1,.191.079.26.26,0,0,1,.079.191v.494a1.687,1.687,0,0,1,1.572-.764h.438a.251.251,0,0,1,.185.073.251.251,0,0,1,.073.185v.46a.233.233,0,0,1-.073.18.263.263,0,0,1-.185.067h-.674a1.278,1.278,0,0,0-.955.354,1.309,1.309,0,0,0-.348.96v3.3a.242.242,0,0,1-.079.185.271.271,0,0,1-.191.073Zm6.233.112a2.453,2.453,0,0,1-1.847-.713,2.924,2.924,0,0,1-.758-1.949l-.011-.382.011-.371a2.962,2.962,0,0,1,.769-1.932,2.415,2.415,0,0,1,1.825-.719,2.417,2.417,0,0,1,1.932.792,3.158,3.158,0,0,1,.685,2.139v.191a.251.251,0,0,1-.073.185.251.251,0,0,1-.185.073h-3.886v.1a2.081,2.081,0,0,0,.444,1.241,1.321,1.321,0,0,0,1.084.511,1.572,1.572,0,0,0,.848-.208,1.665,1.665,0,0,0,.489-.432.654.654,0,0,1,.152-.163.421.421,0,0,1,.185-.028h.55a.254.254,0,0,1,.168.056.193.193,0,0,1,.067.157.989.989,0,0,1-.309.6,2.543,2.543,0,0,1-.865.6A3.05,3.05,0,0,1-237.966-24.574Zm1.539-3.459v-.034a1.866,1.866,0,0,0-.421-1.263,1.415,1.415,0,0,0-1.129-.489,1.382,1.382,0,0,0-1.117.489,1.9,1.9,0,0,0-.41,1.263v.034Zm4.548,3.459a2.1,2.1,0,0,1-1.763-.764,3.2,3.2,0,0,1-.629-1.932l-.011-.337.011-.337a3.213,3.213,0,0,1,.629-1.926,2.092,2.092,0,0,1,1.763-.769,2.212,2.212,0,0,1,1.819.82V-32.4a.251.251,0,0,1,.073-.185.251.251,0,0,1,.185-.073h.539a.251.251,0,0,1,.185.073A.251.251,0,0,1-229-32.4v7.457a.251.251,0,0,1-.073.185.251.251,0,0,1-.185.073h-.505a.251.251,0,0,1-.185-.073.251.251,0,0,1-.073-.185v-.472A2.2,2.2,0,0,1-231.879-24.574Zm.236-.91a1.367,1.367,0,0,0,1.162-.511,2.134,2.134,0,0,0,.421-1.219q.011-.124.011-.427t-.011-.438a1.877,1.877,0,0,0-.427-1.157,1.409,1.409,0,0,0-1.157-.494,1.349,1.349,0,0,0-1.162.494,2.309,2.309,0,0,0-.4,1.3l-.011.326Q-233.216-25.483-231.643-25.483Zm7.469.8a.251.251,0,0,1-.185-.073.251.251,0,0,1-.073-.185v-7.334a.266.266,0,0,1,.073-.2.251.251,0,0,1,.185-.073h3.077a2.544,2.544,0,0,1,1.808.573,1.974,1.974,0,0,1,.606,1.5,1.8,1.8,0,0,1-.286,1.044,1.765,1.765,0,0,1-.679.606,2.055,2.055,0,0,1,.8.73,2.014,2.014,0,0,1,.326,1.134,2.323,2.323,0,0,1-.286,1.146,2.06,2.06,0,0,1-.848.82,2.8,2.8,0,0,1-1.348.3Zm2.909-4.537a1.609,1.609,0,0,0,1.084-.326,1.139,1.139,0,0,0,.376-.91,1.067,1.067,0,0,0-.371-.876,1.687,1.687,0,0,0-1.089-.3h-2.066v2.415Zm.112,3.628a1.534,1.534,0,0,0,1.106-.382,1.294,1.294,0,0,0,.4-.977,1.3,1.3,0,0,0-.4-.994,1.548,1.548,0,0,0-1.106-.376h-2.179V-25.6Zm5.1,3.044a.216.216,0,0,1-.157-.067.216.216,0,0,1-.067-.157.519.519,0,0,1,.056-.2l.865-2.055L-217.5-30.1a.722.722,0,0,1-.056-.191.229.229,0,0,1,.067-.168.229.229,0,0,1,.168-.067h.55a.288.288,0,0,1,.27.191l1.707,4.088,1.752-4.088a.3.3,0,0,1,.281-.191h.528a.229.229,0,0,1,.168.067A.215.215,0,0,1-212-30.3a1.076,1.076,0,0,1-.056.2l-3.19,7.356a.3.3,0,0,1-.281.191Zm9.479-2.134a.251.251,0,0,1-.185-.073.251.251,0,0,1-.073-.185v-6.6h-2.156a.251.251,0,0,1-.185-.073.251.251,0,0,1-.073-.185v-.472a.271.271,0,0,1,.073-.191.242.242,0,0,1,.185-.079h5.413a.266.266,0,0,1,.2.073.266.266,0,0,1,.073.2v.472a.242.242,0,0,1-.079.185.27.27,0,0,1-.191.073h-2.145v6.6a.242.242,0,0,1-.079.185.27.27,0,0,1-.191.073Zm4.975.112a2.346,2.346,0,0,1-1.022-.225,1.891,1.891,0,0,1-.747-.612,1.45,1.45,0,0,1-.275-.859,1.48,1.48,0,0,1,.612-1.219,3.424,3.424,0,0,1,1.657-.623l1.673-.236v-.326q0-1.146-1.314-1.146a1.44,1.44,0,0,0-.809.208,1.426,1.426,0,0,0-.472.489.334.334,0,0,1-.084.146.2.2,0,0,1-.14.045H-203a.238.238,0,0,1-.174-.073.238.238,0,0,1-.073-.174,1.193,1.193,0,0,1,.253-.612,1.96,1.96,0,0,1,.747-.6,2.77,2.77,0,0,1,1.247-.253,2.381,2.381,0,0,1,1.808.59,2.066,2.066,0,0,1,.55,1.466v3.639a.251.251,0,0,1-.073.185.251.251,0,0,1-.185.073h-.517a.251.251,0,0,1-.185-.073.251.251,0,0,1-.073-.185v-.483a1.941,1.941,0,0,1-.719.606A2.579,2.579,0,0,1-201.6-24.574Zm.236-.842a1.6,1.6,0,0,0,1.2-.477,1.889,1.889,0,0,0,.466-1.376v-.314l-1.3.191a3.007,3.007,0,0,0-1.2.376.779.779,0,0,0-.4.668.776.776,0,0,0,.371.691A1.569,1.569,0,0,0-201.365-25.416Zm7.221.842a2.155,2.155,0,0,1-1.842-.842v.472a.251.251,0,0,1-.073.185.251.251,0,0,1-.185.073h-.517a.251.251,0,0,1-.185-.073.251.251,0,0,1-.073-.185V-32.4a.251.251,0,0,1,.073-.185.251.251,0,0,1,.185-.073h.55a.233.233,0,0,1,.18.073.263.263,0,0,1,.067.185v2.583a2.212,2.212,0,0,1,1.819-.82,2.092,2.092,0,0,1,1.763.769,3.27,3.27,0,0,1,.64,1.926q.011.124.011.337t-.011.337a3.261,3.261,0,0,1-.64,1.932A2.1,2.1,0,0,1-194.144-24.574Zm-.236-.91a1.349,1.349,0,0,0,1.162-.494,2.309,2.309,0,0,0,.4-1.3q.011-.112.011-.326,0-2.123-1.572-2.123a1.409,1.409,0,0,0-1.157.494,1.877,1.877,0,0,0-.427,1.157l-.011.438.011.427a2.134,2.134,0,0,0,.421,1.219A1.366,1.366,0,0,0-194.379-25.483Zm4.3.8a.251.251,0,0,1-.185-.073.251.251,0,0,1-.073-.185V-32.4a.251.251,0,0,1,.073-.185.251.251,0,0,1,.185-.073h.528a.251.251,0,0,1,.185.073.251.251,0,0,1,.073.185v7.457a.251.251,0,0,1-.073.185.251.251,0,0,1-.185.073Zm4.8.112a2.453,2.453,0,0,1-1.847-.713,2.924,2.924,0,0,1-.758-1.949l-.011-.382.011-.371a2.962,2.962,0,0,1,.769-1.932,2.415,2.415,0,0,1,1.825-.719,2.417,2.417,0,0,1,1.932.792,3.158,3.158,0,0,1,.685,2.139v.191a.251.251,0,0,1-.073.185.251.251,0,0,1-.185.073h-3.886v.1a2.081,2.081,0,0,0,.444,1.241,1.321,1.321,0,0,0,1.084.511,1.572,1.572,0,0,0,.848-.208,1.665,1.665,0,0,0,.489-.432.654.654,0,0,1,.152-.163.421.421,0,0,1,.185-.028h.55a.254.254,0,0,1,.168.056.193.193,0,0,1,.067.157.988.988,0,0,1-.309.6,2.543,2.543,0,0,1-.865.6A3.05,3.05,0,0,1-185.282-24.574Zm1.539-3.459v-.034a1.866,1.866,0,0,0-.421-1.263,1.415,1.415,0,0,0-1.129-.489,1.382,1.382,0,0,0-1.117.489,1.9,1.9,0,0,0-.41,1.263v.034Zm1.977,3.347a.216.216,0,0,1-.157-.067.215.215,0,0,1-.067-.157.451.451,0,0,1,.011-.124L-179.2-32.3a.35.35,0,0,1,.359-.247h.764a.35.35,0,0,1,.359.247l2.774,7.266.022.124a.216.216,0,0,1-.067.157.215.215,0,0,1-.157.067h-.573a.272.272,0,0,1-.191-.062.313.313,0,0,1-.09-.129l-.618-1.595H-180.3l-.618,1.595a.3.3,0,0,1-.1.129.277.277,0,0,1-.185.062Zm4.829-2.752-1.516-3.987-1.516,3.987Zm3.336,2.752a.251.251,0,0,1-.185-.073.251.251,0,0,1-.073-.185v-5.312a.27.27,0,0,1,.073-.191.242.242,0,0,1,.185-.079h.517a.26.26,0,0,1,.191.079.26.26,0,0,1,.079.191v.494a1.687,1.687,0,0,1,1.572-.764h.438a.251.251,0,0,1,.185.073.251.251,0,0,1,.073.185v.46a.233.233,0,0,1-.073.18.263.263,0,0,1-.185.067h-.674a1.278,1.278,0,0,0-.955.354,1.309,1.309,0,0,0-.348.96v3.3a.242.242,0,0,1-.079.185.27.27,0,0,1-.191.073Zm6.289,0q-1.774,0-1.774-1.977v-2.965h-.876a.251.251,0,0,1-.185-.073.251.251,0,0,1-.073-.185v-.382a.251.251,0,0,1,.073-.185.251.251,0,0,1,.185-.073h.876V-32.4a.251.251,0,0,1,.073-.185.251.251,0,0,1,.185-.073h.528a.251.251,0,0,1,.185.073.251.251,0,0,1,.073.185v1.876h1.393a.251.251,0,0,1,.185.073.251.251,0,0,1,.073.185v.382a.251.251,0,0,1-.073.185.251.251,0,0,1-.185.073h-1.393v2.886a1.537,1.537,0,0,0,.191.848.7.7,0,0,0,.629.286h.685a.251.251,0,0,1,.185.073.251.251,0,0,1,.073.185v.4a.251.251,0,0,1-.073.185.251.251,0,0,1-.185.073Z" transform="translate(-276.671 -446.556)" fill="#263340"/></g></svg>