<svg xmlns="http://www.w3.org/2000/svg" xmlns:xlink="http://www.w3.org/1999/xlink" width="200.459" height="79.029" viewBox="0 0 200.459 79.029"><defs><linearGradient id="a" x1="0.54" x2="0.549" y2="1" gradientUnits="objectBoundingBox"><stop offset="0" stop-color="#0362d5"/><stop offset="1" stop-color="#2d8dff"/></linearGradient></defs><g transform="translate(598.218 505.538)"><g transform="translate(-716.029 -2362.457)"><path d="M30.784,79.027h0l-1.694-1.715L0,48.221l.246-.246-.028-.028L12.954,35.211,15.5,37.758l-1.5,1.5L27.105,57.3H38.281l6.231-12.071,3.16,3.052a3.242,3.242,0,0,0,4.5-4.665l-3.534-3.413,2.266-2.287L55.076,42l.006.031a6.126,6.126,0,0,1,.4,7.8v.012l-.088.1c-.1.126-.2.248-.306.362L30.785,79.028h0Zm-8.92-14.036L30.074,73.2l2.454-4.756-5.942-8.179ZM33.639,66.3l3.525-6.831H28.676ZM5.066,48.193,20.336,63.463,25.3,58.5l-5.99-8.245L16.9,52.664l-1.528-1.529,2.654-2.654L12.45,40.81ZM30.783,79.026h0Zm.188-26.2a122.831,122.831,0,0,1-9.685-11.968A74.81,74.81,0,0,1,14.628,29.7C12.62,25.426,11.6,21.652,11.6,18.49a17.684,17.684,0,0,1,1.52-7.2,18.376,18.376,0,0,1,4.149-5.876,19.338,19.338,0,0,1,6.156-3.96,20.329,20.329,0,0,1,15.088,0,19.348,19.348,0,0,1,6.156,3.96,18.377,18.377,0,0,1,4.148,5.876,17.685,17.685,0,0,1,1.521,7.2c0,3.163-1.019,6.936-3.027,11.215a74.733,74.733,0,0,1-6.658,11.154,122.9,122.9,0,0,1-9.684,11.968h0ZM25.353,19.511a5.764,5.764,0,1,0,5.764-5.764A5.771,5.771,0,0,0,25.353,19.511Z" transform="translate(117.812 1856.919)" fill="url(#a)"/></g><path d="M13.814-59.336a11.925,11.925,0,0,1-4.73-.857,7.327,7.327,0,0,1-3.049-2.258,5.291,5.291,0,0,1-1.121-3.016.662.662,0,0,1,.214-.478.7.7,0,0,1,.511-.214H7.32a.86.86,0,0,1,.857.659,3.9,3.9,0,0,0,1.7,2.373,6.755,6.755,0,0,0,3.939.989,7.174,7.174,0,0,0,4.12-.972,3.135,3.135,0,0,0,1.384-2.719,2.485,2.485,0,0,0-.676-1.813,5.745,5.745,0,0,0-1.994-1.22q-1.319-.527-3.956-1.319a20.3,20.3,0,0,1-4.087-1.549,5.923,5.923,0,0,1-2.274-2.044,5.712,5.712,0,0,1-.758-3.066,5.52,5.52,0,0,1,.972-3.2,6.464,6.464,0,0,1,2.785-2.225,10.554,10.554,0,0,1,4.318-.808,9.931,9.931,0,0,1,4.417.906,7.114,7.114,0,0,1,2.8,2.291A5.307,5.307,0,0,1,21.89-77.1a.661.661,0,0,1-.181.461.658.658,0,0,1-.511.2H19.451a.791.791,0,0,1-.857-.626,3.273,3.273,0,0,0-1.549-2.291,5.967,5.967,0,0,0-3.4-.906,6.3,6.3,0,0,0-3.527.857,2.852,2.852,0,0,0-1.286,2.538,2.77,2.77,0,0,0,.61,1.846,4.983,4.983,0,0,0,1.862,1.269,31.928,31.928,0,0,0,3.659,1.236,24.5,24.5,0,0,1,4.417,1.566,5.993,5.993,0,0,1,2.406,2.011,5.444,5.444,0,0,1,.791,3.049,5.647,5.647,0,0,1-2.373,4.813A10.56,10.56,0,0,1,13.814-59.336Zm13.845-.33a.737.737,0,0,1-.544-.214.737.737,0,0,1-.214-.544V-81.982a.737.737,0,0,1,.214-.544.737.737,0,0,1,.544-.214h1.747a.737.737,0,0,1,.544.214.737.737,0,0,1,.214.544v21.558a.737.737,0,0,1-.214.544.737.737,0,0,1-.544.214Zm9,0a.737.737,0,0,1-.544-.214.737.737,0,0,1-.214-.544V-81.949a.779.779,0,0,1,.214-.577.737.737,0,0,1,.544-.214h1.648a.983.983,0,0,1,.857.527L46.118-68.9l7.021-13.317a.777.777,0,0,1,.28-.363.866.866,0,0,1,.544-.165h1.615a.78.78,0,0,1,.577.214.779.779,0,0,1,.214.577v21.525a.71.71,0,0,1-.231.544.794.794,0,0,1-.56.214H53.964a.737.737,0,0,1-.544-.214.737.737,0,0,1-.214-.544V-76.642L47.7-65.9a1.1,1.1,0,0,1-1.055.692H45.624a1.1,1.1,0,0,1-1.055-.692L39.031-76.642v16.218a.737.737,0,0,1-.214.544.737.737,0,0,1-.544.214Zm26.173,0a.737.737,0,0,1-.544-.214.737.737,0,0,1-.214-.544V-81.949a.78.78,0,0,1,.214-.577.737.737,0,0,1,.544-.214H71.2a8.8,8.8,0,0,1,5.867,1.813,6.483,6.483,0,0,1,2.143,5.241,6.457,6.457,0,0,1-2.126,5.225,8.84,8.84,0,0,1-5.884,1.8H65.369v8.241a.71.71,0,0,1-.231.544.794.794,0,0,1-.56.214Zm8.208-11.768a5.363,5.363,0,0,0,3.642-1.088,3.991,3.991,0,0,0,1.236-3.164,4.072,4.072,0,0,0-1.22-3.181,5.3,5.3,0,0,0-3.659-1.1h-5.7v8.538ZM83.993-59.666a.737.737,0,0,1-.544-.214.737.737,0,0,1-.214-.544V-81.982a.737.737,0,0,1,.214-.544.737.737,0,0,1,.544-.214H85.74a.737.737,0,0,1,.544.214.737.737,0,0,1,.214.544v19.448H97.442a.78.78,0,0,1,.577.214.78.78,0,0,1,.214.577v1.319A.71.71,0,0,1,98-59.88a.794.794,0,0,1-.56.214Zm18.558,0a.737.737,0,0,1-.544-.214.737.737,0,0,1-.214-.544V-81.949a.78.78,0,0,1,.214-.577.737.737,0,0,1,.544-.214h13.614a.737.737,0,0,1,.544.214.78.78,0,0,1,.214.577V-80.7a.771.771,0,0,1-.2.544.725.725,0,0,1-.56.214H104.958v7.219H115.44a.737.737,0,0,1,.544.214.779.779,0,0,1,.214.577v1.22a.737.737,0,0,1-.214.544.737.737,0,0,1-.544.214H104.958v7.483h11.471a.758.758,0,0,1,.56.2.758.758,0,0,1,.2.56v1.286a.737.737,0,0,1-.214.544.737.737,0,0,1-.544.214Z" transform="translate(-526 -406.437)" fill="#263340"/><path d="M-272.574-23.458a.29.29,0,0,1-.214-.084.29.29,0,0,1-.084-.214v-8.463a.307.307,0,0,1,.084-.227.29.29,0,0,1,.214-.084h3.292a3.459,3.459,0,0,1,2.307.713,2.549,2.549,0,0,1,.842,2.061,2.539,2.539,0,0,1-.836,2.054,3.476,3.476,0,0,1-2.313.706h-2.294v3.24a.279.279,0,0,1-.091.214.312.312,0,0,1-.22.084Zm3.227-4.627a2.108,2.108,0,0,0,1.432-.428,1.569,1.569,0,0,0,.486-1.244,1.6,1.6,0,0,0-.479-1.251,2.083,2.083,0,0,0-1.439-.434h-2.242v3.357Zm7.3,4.756a2.946,2.946,0,0,1-2.21-.8,3.113,3.113,0,0,1-.836-2.138l-.013-.557.013-.557a3.106,3.106,0,0,1,.842-2.132,2.937,2.937,0,0,1,2.2-.81,2.937,2.937,0,0,1,2.2.81A3.106,3.106,0,0,1-259-27.385q.013.143.013.557t-.013.557a3.113,3.113,0,0,1-.836,2.138A2.946,2.946,0,0,1-262.05-23.329Zm0-1a1.659,1.659,0,0,0,1.289-.518,2.277,2.277,0,0,0,.512-1.49q.013-.13.013-.492t-.013-.492a2.277,2.277,0,0,0-.512-1.49,1.659,1.659,0,0,0-1.289-.518,1.679,1.679,0,0,0-1.3.518,2.208,2.208,0,0,0-.505,1.49l-.013.492.013.492a2.208,2.208,0,0,0,.505,1.49A1.679,1.679,0,0,0-262.05-24.327Zm6.286.868a.387.387,0,0,1-.259-.078.6.6,0,0,1-.156-.246l-1.84-6.013-.026-.13a.253.253,0,0,1,.084-.194.27.27,0,0,1,.188-.078h.57a.32.32,0,0,1,.214.071.343.343,0,0,1,.11.149l1.439,4.886,1.542-4.834a.382.382,0,0,1,.117-.188.348.348,0,0,1,.246-.084h.441a.348.348,0,0,1,.246.084.382.382,0,0,1,.117.188l1.542,4.834,1.439-4.886a.289.289,0,0,1,.1-.143.3.3,0,0,1,.214-.078h.583a.249.249,0,0,1,.181.078.264.264,0,0,1,.078.194l-.026.13-1.827,6.013a.605.605,0,0,1-.156.246.409.409,0,0,1-.272.078h-.505a.393.393,0,0,1-.428-.324l-1.5-4.64-1.5,4.64a.425.425,0,0,1-.441.324Zm11.12.13a2.831,2.831,0,0,1-2.132-.823,3.374,3.374,0,0,1-.875-2.249l-.013-.441.013-.428a3.418,3.418,0,0,1,.888-2.229,2.787,2.787,0,0,1,2.106-.829,2.789,2.789,0,0,1,2.229.914,3.644,3.644,0,0,1,.791,2.469v.22a.29.29,0,0,1-.084.214.29.29,0,0,1-.214.084h-4.484v.117a2.4,2.4,0,0,0,.512,1.432,1.524,1.524,0,0,0,1.251.59,1.814,1.814,0,0,0,.979-.24,1.922,1.922,0,0,0,.564-.5.754.754,0,0,1,.175-.188.486.486,0,0,1,.214-.032h.635a.293.293,0,0,1,.194.065.223.223,0,0,1,.078.181,1.141,1.141,0,0,1-.356.687,2.933,2.933,0,0,1-1,.693A3.52,3.52,0,0,1-244.645-23.329Zm1.775-3.992v-.039a2.154,2.154,0,0,0-.486-1.458,1.633,1.633,0,0,0-1.3-.564,1.6,1.6,0,0,0-1.29.564,2.192,2.192,0,0,0-.473,1.458v.039Zm3.085,3.862a.29.29,0,0,1-.214-.084.29.29,0,0,1-.084-.214v-6.13a.312.312,0,0,1,.084-.22.279.279,0,0,1,.214-.091h.6a.3.3,0,0,1,.22.091.3.3,0,0,1,.091.22v.57a1.947,1.947,0,0,1,1.814-.881h.505a.29.29,0,0,1,.214.084.29.29,0,0,1,.084.214v.531a.269.269,0,0,1-.084.207.3.3,0,0,1-.214.078h-.778a1.475,1.475,0,0,0-1.1.408,1.511,1.511,0,0,0-.4,1.108v3.81a.279.279,0,0,1-.091.214.312.312,0,0,1-.22.084Zm7.193.13a2.831,2.831,0,0,1-2.132-.823A3.374,3.374,0,0,1-235.6-26.4l-.013-.441.013-.428a3.418,3.418,0,0,1,.888-2.229,2.787,2.787,0,0,1,2.106-.829,2.789,2.789,0,0,1,2.229.914,3.644,3.644,0,0,1,.791,2.469v.22a.29.29,0,0,1-.084.214.29.29,0,0,1-.214.084h-4.484v.117a2.4,2.4,0,0,0,.512,1.432,1.524,1.524,0,0,0,1.251.59,1.814,1.814,0,0,0,.978-.24,1.921,1.921,0,0,0,.564-.5.754.754,0,0,1,.175-.188.486.486,0,0,1,.214-.032h.635a.293.293,0,0,1,.194.065.223.223,0,0,1,.078.181,1.141,1.141,0,0,1-.356.687,2.935,2.935,0,0,1-1,.693A3.52,3.52,0,0,1-232.592-23.329Zm1.776-3.992v-.039a2.154,2.154,0,0,0-.486-1.458,1.633,1.633,0,0,0-1.3-.564,1.594,1.594,0,0,0-1.29.564,2.191,2.191,0,0,0-.473,1.458v.039Zm5.249,3.992a2.422,2.422,0,0,1-2.035-.881,3.7,3.7,0,0,1-.726-2.229l-.013-.389.013-.389a3.708,3.708,0,0,1,.726-2.223,2.414,2.414,0,0,1,2.035-.888,2.553,2.553,0,0,1,2.1.946v-2.981a.29.29,0,0,1,.084-.214.29.29,0,0,1,.214-.084h.622a.29.29,0,0,1,.214.084.29.29,0,0,1,.084.214v8.605a.29.29,0,0,1-.084.214.29.29,0,0,1-.214.084h-.583a.29.29,0,0,1-.214-.084.29.29,0,0,1-.084-.214V-24.3A2.544,2.544,0,0,1-225.568-23.329Zm.272-1.05a1.577,1.577,0,0,0,1.341-.59,2.462,2.462,0,0,0,.486-1.406q.013-.143.013-.492t-.013-.505a2.166,2.166,0,0,0-.492-1.335,1.626,1.626,0,0,0-1.335-.57,1.557,1.557,0,0,0-1.341.57,2.665,2.665,0,0,0-.46,1.5l-.013.376Q-227.11-24.379-225.3-24.379Zm8.618.92a.29.29,0,0,1-.214-.084.29.29,0,0,1-.084-.214v-8.463a.307.307,0,0,1,.084-.227.29.29,0,0,1,.214-.084h3.551a2.936,2.936,0,0,1,2.087.661,2.278,2.278,0,0,1,.7,1.737,2.075,2.075,0,0,1-.33,1.205,2.037,2.037,0,0,1-.784.7,2.372,2.372,0,0,1,.92.842,2.324,2.324,0,0,1,.376,1.309,2.68,2.68,0,0,1-.331,1.322,2.377,2.377,0,0,1-.978.946,3.231,3.231,0,0,1-1.555.35Zm3.357-5.236a1.856,1.856,0,0,0,1.251-.376,1.314,1.314,0,0,0,.434-1.05,1.231,1.231,0,0,0-.428-1.011,1.947,1.947,0,0,0-1.257-.35h-2.385v2.786Zm.13,4.186a1.77,1.77,0,0,0,1.277-.441,1.493,1.493,0,0,0,.46-1.128,1.5,1.5,0,0,0-.46-1.147,1.786,1.786,0,0,0-1.277-.434h-2.514v3.149ZM-207.308-21a.249.249,0,0,1-.181-.078.249.249,0,0,1-.078-.181.6.6,0,0,1,.065-.233l1-2.372-2.475-5.845a.833.833,0,0,1-.065-.22.264.264,0,0,1,.078-.194.264.264,0,0,1,.194-.078h.635a.332.332,0,0,1,.311.22l1.97,4.717,2.022-4.717a.34.34,0,0,1,.324-.22h.609a.264.264,0,0,1,.194.078.249.249,0,0,1,.078.181,1.242,1.242,0,0,1-.065.233l-3.681,8.489a.341.341,0,0,1-.324.22Zm10.938-2.462a.29.29,0,0,1-.214-.084.29.29,0,0,1-.084-.214v-7.62h-2.488a.29.29,0,0,1-.214-.084.29.29,0,0,1-.084-.214v-.544a.312.312,0,0,1,.084-.22.279.279,0,0,1,.214-.091h6.247a.307.307,0,0,1,.227.084.307.307,0,0,1,.084.227v.544a.279.279,0,0,1-.091.214.312.312,0,0,1-.22.084h-2.475v7.62a.279.279,0,0,1-.091.214.312.312,0,0,1-.22.084Zm5.741.13a2.708,2.708,0,0,1-1.179-.259,2.183,2.183,0,0,1-.862-.706,1.674,1.674,0,0,1-.318-.991,1.708,1.708,0,0,1,.706-1.406,3.951,3.951,0,0,1,1.912-.719l1.931-.272v-.376q0-1.322-1.516-1.322a1.662,1.662,0,0,0-.933.24,1.645,1.645,0,0,0-.544.564.386.386,0,0,1-.1.168.235.235,0,0,1-.162.052h-.557a.274.274,0,0,1-.2-.084.274.274,0,0,1-.084-.2,1.377,1.377,0,0,1,.292-.706,2.262,2.262,0,0,1,.862-.687,3.2,3.2,0,0,1,1.439-.292,2.748,2.748,0,0,1,2.087.68,2.384,2.384,0,0,1,.635,1.691v4.2a.29.29,0,0,1-.084.214.29.29,0,0,1-.214.084h-.6a.29.29,0,0,1-.214-.084.29.29,0,0,1-.084-.214v-.557a2.24,2.24,0,0,1-.829.7A2.976,2.976,0,0,1-190.628-23.329Zm.272-.972a1.845,1.845,0,0,0,1.38-.551,2.18,2.18,0,0,0,.538-1.588V-26.8l-1.5.22a3.47,3.47,0,0,0-1.387.434.9.9,0,0,0-.467.771.9.9,0,0,0,.428.8A1.81,1.81,0,0,0-190.356-24.3Zm8.333.972a2.487,2.487,0,0,1-2.125-.972v.544a.29.29,0,0,1-.084.214.29.29,0,0,1-.214.084h-.6a.29.29,0,0,1-.214-.084.29.29,0,0,1-.084-.214v-8.605a.29.29,0,0,1,.084-.214.29.29,0,0,1,.214-.084h.635a.269.269,0,0,1,.207.084.3.3,0,0,1,.078.214v2.981a2.553,2.553,0,0,1,2.1-.946,2.414,2.414,0,0,1,2.035.888,3.773,3.773,0,0,1,.739,2.223q.013.143.013.389t-.013.389a3.763,3.763,0,0,1-.739,2.229A2.422,2.422,0,0,1-182.023-23.329Zm-.272-1.05a1.557,1.557,0,0,0,1.341-.57,2.664,2.664,0,0,0,.46-1.5q.013-.13.013-.376,0-2.449-1.814-2.449a1.626,1.626,0,0,0-1.335.57,2.166,2.166,0,0,0-.493,1.335l-.013.505.013.492a2.462,2.462,0,0,0,.486,1.406A1.577,1.577,0,0,0-182.295-24.379Zm4.964.92a.29.29,0,0,1-.214-.084.29.29,0,0,1-.084-.214v-8.605a.29.29,0,0,1,.084-.214.29.29,0,0,1,.214-.084h.609a.29.29,0,0,1,.214.084.29.29,0,0,1,.084.214v8.605a.29.29,0,0,1-.084.214.29.29,0,0,1-.214.084Zm5.534.13a2.831,2.831,0,0,1-2.132-.823A3.374,3.374,0,0,1-174.8-26.4l-.013-.441.013-.428a3.418,3.418,0,0,1,.888-2.229,2.787,2.787,0,0,1,2.106-.829,2.789,2.789,0,0,1,2.229.914,3.644,3.644,0,0,1,.791,2.469v.22a.29.29,0,0,1-.084.214.29.29,0,0,1-.214.084h-4.484v.117a2.4,2.4,0,0,0,.512,1.432,1.524,1.524,0,0,0,1.251.59,1.814,1.814,0,0,0,.979-.24,1.922,1.922,0,0,0,.564-.5.755.755,0,0,1,.175-.188.486.486,0,0,1,.214-.032h.635a.293.293,0,0,1,.194.065.223.223,0,0,1,.078.181,1.141,1.141,0,0,1-.356.687,2.934,2.934,0,0,1-1,.693A3.52,3.52,0,0,1-171.8-23.329Zm1.776-3.992v-.039a2.154,2.154,0,0,0-.486-1.458,1.633,1.633,0,0,0-1.3-.564,1.594,1.594,0,0,0-1.289.564,2.191,2.191,0,0,0-.473,1.458v.039Zm2.281,3.862a.249.249,0,0,1-.181-.078.249.249,0,0,1-.078-.181.521.521,0,0,1,.013-.143l3.214-8.385a.4.4,0,0,1,.415-.285h.881a.4.4,0,0,1,.415.285l3.2,8.385.026.143a.249.249,0,0,1-.078.181.249.249,0,0,1-.181.078h-.661a.314.314,0,0,1-.22-.071.361.361,0,0,1-.1-.149l-.713-1.84h-4.251l-.713,1.84a.342.342,0,0,1-.11.149.32.32,0,0,1-.214.071Zm5.573-3.175-1.75-4.6-1.75,4.6Zm3.849,3.175a.29.29,0,0,1-.214-.084.29.29,0,0,1-.084-.214v-6.13a.312.312,0,0,1,.084-.22.279.279,0,0,1,.214-.091h.6a.3.3,0,0,1,.22.091.3.3,0,0,1,.091.22v.57A1.947,1.947,0,0,1-155.6-30.2h.505a.29.29,0,0,1,.214.084.29.29,0,0,1,.084.214v.531a.269.269,0,0,1-.084.207.3.3,0,0,1-.214.078h-.778a1.475,1.475,0,0,0-1.1.408,1.511,1.511,0,0,0-.4,1.108v3.81a.279.279,0,0,1-.091.214.312.312,0,0,1-.22.084Zm7.258,0q-2.048,0-2.048-2.281v-3.421h-1.011a.29.29,0,0,1-.214-.084.29.29,0,0,1-.084-.214V-29.9a.29.29,0,0,1,.084-.214.29.29,0,0,1,.214-.084h1.011v-2.164a.29.29,0,0,1,.084-.214.29.29,0,0,1,.214-.084h.609a.29.29,0,0,1,.214.084.29.29,0,0,1,.084.214V-30.2h1.607a.29.29,0,0,1,.214.084A.29.29,0,0,1-150-29.9v.441a.29.29,0,0,1-.084.214.29.29,0,0,1-.214.084H-151.9v3.331a1.774,1.774,0,0,0,.22.978.807.807,0,0,0,.726.33h.791a.29.29,0,0,1,.214.084.29.29,0,0,1,.084.214v.467a.29.29,0,0,1-.084.214.29.29,0,0,1-.214.084Z" transform="translate(-247.89 -419.542)" fill="#263340"/></g></svg>