<svg xmlns="http://www.w3.org/2000/svg" xmlns:xlink="http://www.w3.org/1999/xlink" width="146.627" height="48.02" viewBox="0 0 146.627 48.02"><defs><style>.a{fill:#194169;}.b{fill:url(#a);}</style><linearGradient id="a" x1="0.568" y1="0.188" x2="0.55" y2="0.961" gradientUnits="objectBoundingBox"><stop offset="0" stop-color="#4d54ff"/><stop offset="1" stop-color="#d2a6e5"/></linearGradient></defs><g transform="translate(604 511.109)"><path class="a" d="M12.227-63.569a9.8,9.8,0,0,1-3.887-.7,6.02,6.02,0,0,1-2.505-1.855,4.347,4.347,0,0,1-.921-2.478A.544.544,0,0,1,5.09-69a.573.573,0,0,1,.42-.176H6.891a.707.707,0,0,1,.7.542,3.208,3.208,0,0,0,1.395,1.95,5.55,5.55,0,0,0,3.237.813,5.9,5.9,0,0,0,3.386-.8A2.576,2.576,0,0,0,16.75-68.9a2.042,2.042,0,0,0-.555-1.49,4.72,4.72,0,0,0-1.639-1q-1.083-.433-3.25-1.083a16.683,16.683,0,0,1-3.358-1.273,4.867,4.867,0,0,1-1.869-1.679,4.693,4.693,0,0,1-.623-2.519,4.536,4.536,0,0,1,.8-2.627,5.311,5.311,0,0,1,2.289-1.828,8.672,8.672,0,0,1,3.548-.664,8.16,8.16,0,0,1,3.629.745,5.846,5.846,0,0,1,2.3,1.882,4.361,4.361,0,0,1,.84,2.275.544.544,0,0,1-.149.379.541.541,0,0,1-.42.163H16.858a.65.65,0,0,1-.7-.515,2.689,2.689,0,0,0-1.273-1.882,4.9,4.9,0,0,0-2.79-.745,5.173,5.173,0,0,0-2.9.7,2.344,2.344,0,0,0-1.056,2.086,2.276,2.276,0,0,0,.5,1.517,4.094,4.094,0,0,0,1.53,1.043A26.231,26.231,0,0,0,13.175-74.4,20.127,20.127,0,0,1,16.8-73.116a4.924,4.924,0,0,1,1.977,1.652,4.473,4.473,0,0,1,.65,2.505A4.64,4.64,0,0,1,17.481-65,8.677,8.677,0,0,1,12.227-63.569ZM23.6-63.84a.605.605,0,0,1-.447-.176.605.605,0,0,1-.176-.447V-82.176a.606.606,0,0,1,.176-.447A.605.605,0,0,1,23.6-82.8h1.435a.605.605,0,0,1,.447.176.606.606,0,0,1,.176.447v17.713a.605.605,0,0,1-.176.447.605.605,0,0,1-.447.176Zm7.394,0a.605.605,0,0,1-.447-.176.605.605,0,0,1-.176-.447V-82.149a.641.641,0,0,1,.176-.474A.605.605,0,0,1,31-82.8h1.354a.807.807,0,0,1,.7.433L38.77-71.424l5.769-10.942a.638.638,0,0,1,.23-.3.712.712,0,0,1,.447-.135h1.327a.64.64,0,0,1,.474.176.64.64,0,0,1,.176.474v17.686a.583.583,0,0,1-.19.447.652.652,0,0,1-.46.176H45.216a.605.605,0,0,1-.447-.176.605.605,0,0,1-.176-.447V-77.789l-4.523,8.83a.9.9,0,0,1-.867.569h-.84a.9.9,0,0,1-.867-.569l-4.55-8.83v13.326a.605.605,0,0,1-.176.447.605.605,0,0,1-.447.176Zm21.505,0a.605.605,0,0,1-.447-.176.605.605,0,0,1-.176-.447V-82.149a.641.641,0,0,1,.176-.474A.606.606,0,0,1,52.5-82.8h6.879A7.229,7.229,0,0,1,64.2-81.31,5.326,5.326,0,0,1,65.963-77a5.305,5.305,0,0,1-1.747,4.293,7.263,7.263,0,0,1-4.835,1.476H54.587v6.771a.583.583,0,0,1-.19.447.652.652,0,0,1-.46.176Zm6.744-9.669a4.407,4.407,0,0,0,2.993-.894A3.279,3.279,0,0,0,63.254-77a3.345,3.345,0,0,0-1-2.614,4.353,4.353,0,0,0-3.006-.907H54.56v7.015ZM69.89-63.84a.605.605,0,0,1-.447-.176.605.605,0,0,1-.176-.447V-82.176a.606.606,0,0,1,.176-.447.605.605,0,0,1,.447-.176h1.435a.605.605,0,0,1,.447.176.606.606,0,0,1,.176.447V-66.2H80.94a.64.64,0,0,1,.474.176.64.64,0,0,1,.176.474v1.083a.583.583,0,0,1-.19.447.652.652,0,0,1-.46.176Zm15.249,0a.605.605,0,0,1-.447-.176.605.605,0,0,1-.176-.447V-82.149a.641.641,0,0,1,.176-.474.605.605,0,0,1,.447-.176H96.324a.605.605,0,0,1,.447.176.64.64,0,0,1,.176.474v1.029a.633.633,0,0,1-.163.447.6.6,0,0,1-.46.176H87.116v5.932h8.613a.605.605,0,0,1,.447.176.641.641,0,0,1,.176.474v1a.605.605,0,0,1-.176.447.605.605,0,0,1-.447.176H87.116v6.148h9.425a.623.623,0,0,1,.46.163.623.623,0,0,1,.163.46v1.056a.605.605,0,0,1-.176.447.606.606,0,0,1-.447.176Z" transform="translate(-554.536 -414.062)"/><g transform="translate(-721.811 -2368.028)"><path class="b" d="M18.7,48.019l-1.011-1.024L0,29.3l.149-.149-.017-.017,7.739-7.739,1.547,1.548-.913.913,7.964,10.962H23.26l3.785-7.334,1.92,1.854A1.97,1.97,0,1,0,31.7,26.5l-2.147-2.074,1.378-1.39,2.532,2.478,0,.018a3.722,3.722,0,0,1,.246,4.737v.008l-.054.063c-.057.072-.117.144-.185.22L18.706,48.019h0Zm-5.42-8.529,4.99,4.99,1.491-2.889-3.611-4.971Zm7.155.794,2.143-4.151H17.424Zm-17.361-11,9.277,9.277,3.017-3.017-3.64-5.009L10.267,32l-.929-.929,1.613-1.613L7.565,24.8ZM18.818,32.1a74.723,74.723,0,0,1-5.884-7.272,45.435,45.435,0,0,1-4.045-6.777A16.6,16.6,0,0,1,7.05,11.235a10.747,10.747,0,0,1,.923-4.376,11.175,11.175,0,0,1,2.521-3.571A11.771,11.771,0,0,1,14.234.882a12.354,12.354,0,0,1,9.168,0,11.771,11.771,0,0,1,3.74,2.406,11.175,11.175,0,0,1,2.521,3.571,10.747,10.747,0,0,1,.923,4.376,16.6,16.6,0,0,1-1.839,6.815A45.512,45.512,0,0,1,24.7,24.826,74.722,74.722,0,0,1,18.819,32.1ZM15.405,11.856a3.5,3.5,0,1,0,3.5-3.5A3.505,3.505,0,0,0,15.405,11.856Z" transform="translate(117.812 1856.919)"/></g></g></svg>