<svg xmlns="http://www.w3.org/2000/svg" width="21.964" height="19.579" viewBox="0 0 21.964 19.579"><defs><style>.a{fill:#fff;fill-rule:evenodd;}</style></defs><path class="a" d="M14.188,6.433a.323.323,0,0,1-.118.441L7.028,10.939l.829.222a.324.324,0,0,1,.229.4l-.167.624a.323.323,0,0,1-.4.228l-2.335-.625a.646.646,0,0,1-.457-.791l.626-2.335a.322.322,0,0,1,.4-.228l.624.167a.322.322,0,0,1,.228.4l-.222.829,7.042-4.065a.323.323,0,0,1,.441.118ZM20.672,24h.97a.324.324,0,0,1,.323.323v.646a.323.323,0,0,1-.323.323H.323A.323.323,0,0,1,0,24.968v-.646A.324.324,0,0,1,.323,24h.97V19.477a.646.646,0,0,1,.646-.646H4.523a.646.646,0,0,1,.646.646V24H6.46V16.893a.646.646,0,0,1,.646-.646H9.691a.646.646,0,0,1,.646.646V24h1.292v-9.69a.646.646,0,0,1,.646-.646h2.584a.647.647,0,0,1,.646.646V24H16.8V11.725a.646.646,0,0,1,.646-.646h2.584a.646.646,0,0,1,.646.646Z" transform="translate(-0.001 -5.712)"/></svg>